<svg id="Layer_1" data-name="Layer 1" xmlns="http://www.w3.org/2000/svg" viewBox="0 0 872.11 251.2"><defs><style>.cls-1{fill:#070707;}</style></defs><path class="cls-1" d="M860.45,214.39c-4.57-3.9-22.27-7.49-28.86-9.13C778.16,192,712,192.66,657.42,197.69c-69.86,6.43-152.55,22.32-220.85,1.69,10.16-6.69,20.81-12.41,30.79-19.45,34.84-24.53,67.84-60.2,76.67-103C547.51,60,547,40.3,537.19,25.42c-6.75-10.28-17.69-16-29.49-18.33A57.43,57.43,0,0,0,490.8,6a74.15,74.15,0,0,0-50.4,26.88c-6.85,8.42-10.52,17.26-13.54,27.57C416.07,38.94,401.33,17.37,377.39,9.4A59.45,59.45,0,0,0,333,12.85a53.61,53.61,0,0,0-26.8,31.74c-6.91,21.29-1.9,46.14,8.15,65.58,21.55,41.74,71.47,74.09,114.77,90-14.67,7-28.94,14.28-44.16,20.09-58.11,22.2-122.43,28.33-181.84,7.28a225.71,225.71,0,0,1-25.65-10.84c-18.73-9.49-45.24-26.5-65.78-28.72,6.08-13.21,5.63-28.84.67-42.31-7.63-20.68-26.09-35.42-45.64-44.33C46.9,92.32,29.49,91,8.64,96.8c-.9.9-1.15,1-1.31,2.27,2.7,1.55,13.15-2,16.66-2.4a63.28,63.28,0,0,1,10.75-.41c31.07,1.67,67.8,23.85,76.21,55.2,3.28,12.26,2.06,24.13-1.91,36-9.39-2.08-21.78-2.31-30.13,3-3.09,2-5.78,4.93-6.52,8.62a9,9,0,0,0,1.22,6.72,9.81,9.81,0,0,0,6.72,4c6.38,1.07,13.49-1.51,18.62-5.21s8.71-8.64,11.81-14.05C130.9,196,148.37,204,166.42,214.22c59.29,33.11,126,36.71,190.66,18.45,21.57-6.1,57.41-19.58,75.86-31.71,6.24,3.69,15.88,5,23.1,6.35,71.93,13.75,146.59-3.25,218.52-7.87,42.18-2.71,84.9-2.74,126.81,3.3a348.17,348.17,0,0,1,40.6,8.17c3.62,1,16.12,6.29,19,5.52l.44-.13C861.3,215.2,861.29,215.11,860.45,214.39Zm-770.09-8.6c-3.93,1-8.64,2.34-12.38,0A5.45,5.45,0,0,1,75.41,202a8.06,8.06,0,0,1,1.88-6c3.58-4.49,9.3-5.69,14.69-6.25,5-.84,10.44,0,15.45.5C103.14,197.31,98.37,202.73,90.36,205.79Zm342.1-7.64q-5.64-2.06-11.18-4.35t-11-4.85q-5.43-2.53-10.75-5.33t-10.5-5.8q-5.18-3-10.22-6.27t-9.94-6.72c-3.27-2.32-6.47-4.71-9.63-7.16s-6.25-5-9.3-7.59a152.63,152.63,0,0,1-20.69-22c-15.41-20.41-26.07-46.48-22.42-72.43,2-14,8.48-27,19.95-35.52s27.15-12,41.32-9.9c23.26,3.51,40.12,22.51,51.12,42,2.23,4,5.22,12.26,7.47,15.21.54.71.68.58,1.58.69,1.24-2.5,1.18-5.82,1.92-8.54a67.24,67.24,0,0,1,12-24.4c.72-.9,1.46-1.79,2.22-2.65S446,30.85,446.81,30s1.62-1.63,2.46-2.42,1.71-1.55,2.59-2.29,1.78-1.46,2.7-2.16,1.85-1.37,2.79-2,1.92-1.28,2.9-1.88,2-1.19,3-1.74,2-1.09,3.07-1.59,2.08-1,3.14-1.44,2.13-.88,3.21-1.28,2.17-.77,3.27-1.12,2.21-.66,3.32-1,2.24-.56,3.37-.79,2.26-.45,3.39-.62,2.29-.34,3.43-.46A59.25,59.25,0,0,1,500,9.12a60.27,60.27,0,0,1,10.43,1.75c11,3,20,8.68,25.72,18.78,9,15.76,7.77,36.72,3.11,53.62C524.63,136.43,478.18,172.12,432.46,198.15Z"/></svg>