<svg id="Layer_1" data-name="Layer 1" xmlns="http://www.w3.org/2000/svg" viewBox="0 0 68.51 48.84"><defs><style>.cls-1{fill:#8e8d8d;}</style></defs><path class="cls-1" d="M66.13,10A13.94,13.94,0,0,0,58,5c-3-.47-4.55-.06-7.23,1.32A11.48,11.48,0,0,1,48.37,7.4a6.82,6.82,0,0,1-2.16.12c-2.94-.21-3.79-.16-6.24,1.65-2.06,1.52-4,3.16-6.1,4.63A1.87,1.87,0,0,0,33,12.5a1.54,1.54,0,0,0-1.26-.05,3.47,3.47,0,0,0-.84.47,38.58,38.58,0,0,1-3.53-3.59c-.85-1.08-1.55-2.28-2.35-3.4C23,3.1,20.26.85,16.61.9,12.56,1,8.39,3.68,5.67,6.51c-1.88,2-4,4.52-3.95,7.38s1.75,4.71,3.43,6.72a21.81,21.81,0,0,0,1.74,2,3.93,3.93,0,0,0,2.42,1.12h.08c1.92.52,4.89-.23,6.65-1.1,1.33-.38,2.69-1.57,3.87-2.31a27.46,27.46,0,0,1,5.64-2.74,4.72,4.72,0,0,1,3-.18,1.35,1.35,0,0,1-.1.81c-1.4,3.61-2,10.4-5.79,12.08-2.14,1-4.58.13-6.69,1.19a8.29,8.29,0,0,0-2.56,2.34c-3.19,3.91-4.77,5.44-10.12,4.85a3.48,3.48,0,0,0,.83,2.86l.23.2.06.06a5.08,5.08,0,0,0,3.26.76c5.41-.24,6.31-6.06,10-7.71,3.41-1.54,6.89-.33,9.76-3.49,3-3.35,3.17-8.53,3-12.78l1-.49a13.15,13.15,0,0,0,3.47,9.15c.59.55,1.22,1,1.85,1.54a26.88,26.88,0,0,0,4.44,1.56,11.56,11.56,0,0,1,5,3.76,13.63,13.63,0,0,1,1.53,2.77c1.12,3.06,1,6.12,3.8,8.36a5.37,5.37,0,0,0,2.21,1.14,1.52,1.52,0,0,0,1.07-.11l.18-.15a.62.62,0,0,0-.2-.61c-.59-.7-1.47-1.12-2.09-1.84-1.94-2.29-.94-4.58-1.44-7.16,0-1.3-.88-2.92-1.54-4-2.14-3.33-5.82-3.32-8.92-5-3.31-1.84-6.2-6.65-7.16-10.23a1.43,1.43,0,0,1,0-1.15A.79.79,0,0,1,34,15.9c1.89.08,3.93,2.73,5.16,4.06.22.24.46.47.7.69s.49.43.75.64.52.39.8.57.55.36.83.52a50.35,50.35,0,0,0,6.91,2.88c1.28.49,2.6,1.1,3.91,1.46a9.3,9.3,0,0,0,1.19.25,9.73,9.73,0,0,0,1.2.11,8.81,8.81,0,0,0,6.86-2.71,12.78,12.78,0,0,0,4.82-8C67.47,14.1,67.55,11.92,66.13,10Zm-50.7-8.1a7.69,7.69,0,0,1,5.8,1.95c2,1.71,3.34,4.06,5.12,6,1.23,1.34,2.76,2.34,4,3.65l-.63,1c-1.15-1.79-2.34-3.66-4.44-4.41,1.42,1.1,3.91,3.25,4.13,5.15a.67.67,0,0,1-.1.39l-.26.11c-1.35-.81-2.67-2.85-3.95-4-3.44-3-11.38-6.31-15.95-5.15a12.51,12.51,0,0,0-1.89.68c.41-.32.83-.62,1.24-1,1.37-.82,3-1.28,4.3-2.15A12,12,0,0,0,8.26,5.8,18.41,18.41,0,0,0,5.45,8.28l0-.12C8,5.1,11.3,2.24,15.43,1.85Zm4.05,17.61c-1.3.83-2.46,1.87-3.8,2.65l-.11.09a13.47,13.47,0,0,1-4,1.05,5.4,5.4,0,0,1-3.65-1,30,30,0,0,1-4.32-6.05,6.52,6.52,0,0,1-.64-2.52,4.55,4.55,0,0,1,1.31-3.45,11.68,11.68,0,0,0,0,1.87,22.53,22.53,0,0,0,.66,3.74,3.45,3.45,0,0,0,2.11,2.05,13.79,13.79,0,0,0,3.32.54,23.46,23.46,0,0,0,8.72-.19c-1.64.69-4.22,1.83-6,1.95A4.2,4.2,0,0,1,12,20v.14a2.52,2.52,0,0,0,2,.5c3.15-.25,5.79-2.35,8.8-3C21.7,18.3,20.53,18.78,19.48,19.46Zm7-2.87c-1,.1-2,.34-3,.46-1.26.15-2.54.17-3.81.31s-2.69.43-4,.51a38.72,38.72,0,0,1-8-.65A3.49,3.49,0,0,1,6,16.32c-.13-.15-.24-.33-.36-.5a1.74,1.74,0,0,1-.11-.18A12.45,12.45,0,0,1,5,12a3.46,3.46,0,0,1,.81-2.77A7.94,7.94,0,0,1,11.29,7.2c3.42,0,6.54,1.36,9.5,2.92A17.18,17.18,0,0,1,25.05,13a18,18,0,0,0,4,3.6A17.94,17.94,0,0,0,26.51,16.59Zm-.19,14.62c-2.39,2.27-5.9,1.56-8.78,2.74C13.39,35.66,12.2,42.12,7,41.88a5,5,0,0,1-2.55-.8,2.5,2.5,0,0,1-.64-1.57c.2-.17.55,0,.81,0A7.61,7.61,0,0,0,8.81,39c3.49-1.53,4.75-5.29,7.18-6.67s5.07-.24,7.43-1.63A7.05,7.05,0,0,0,26,28c1.2-2.17,2.12-6.8,2.8-9.39l.11-.35.18-.09a.42.42,0,0,1,.16.35,14,14,0,0,1-.35,1.57c-.14.92-.14,1.8-.22,2.71.47-1.59.5-3.25,1.27-4.75C29.78,22,29.32,28.37,26.32,31.21Zm3.87-13.3a9.53,9.53,0,0,1,.44-1.27,2.23,2.23,0,0,0,.54-1.31c-.58.09-1,.82-1.37,1.26a8.32,8.32,0,0,1,.26-1A4.09,4.09,0,0,1,32.21,13a1.08,1.08,0,0,1,1,.3,1.23,1.23,0,0,1,.09.47C33.13,15.35,31.38,17,30.19,17.91ZM49.11,32.8a8.49,8.49,0,0,1,1.57,5.08c-.41,2.68,0,5.54,2.4,7.14.39.25,1.14.49,1.39.87a.39.39,0,0,1-.28.06,5.31,5.31,0,0,1-1.87-.78c-4.42-2.6-2.68-7.94-5.55-11.33l0-.05c-1-1.76-2.94-2.86-4.68-3.69h.82A8.37,8.37,0,0,1,49.11,32.8ZM33.5,19.38a16.48,16.48,0,0,0,.92,2.22,13.65,13.65,0,0,0,8.82,7.77,12.79,12.79,0,0,1-5.37-.92,9.78,9.78,0,0,1-3.59-3.32c-1.09-1.63-2.58-5.4-2.18-7.36a12.38,12.38,0,0,1,.85,2.6,9.69,9.69,0,0,0,.85,1.78,17,17,0,0,1-1.2-5.08,1.77,1.77,0,0,1,.24.23A12,12,0,0,1,33.5,19.38Zm31.87-7.94a6,6,0,0,1,.26,4.76,8.5,8.5,0,0,1-4.53,4.67c-4.17,1.71-10,.94-14.05-.78-1.62-.69-3.11-1.63-4.67-2.44A28.25,28.25,0,0,0,39,16.22,21.67,21.67,0,0,0,44.53,15a24.69,24.69,0,0,0,5-3.26,17.24,17.24,0,0,1,8.58-3.86A7.31,7.31,0,0,1,61.57,8,6.17,6.17,0,0,1,65.37,11.44ZM56.12,5.85a6.89,6.89,0,0,1,5.54,1.51l-.06,0a12.51,12.51,0,0,0-3.71-.25A8.62,8.62,0,0,0,56,7.6c-2,.72-3.8,1.52-5.67,2.42.34-.47.7-.94,1-1.4A6.56,6.56,0,0,1,56.12,5.85ZM34.64,14c.54-.27,1.06-.56,1.57-.88a17,17,0,0,0,1.49-1c1.56-1.18,3.22-2.83,5-3.55s3.42,0,5.21-.33a15,15,0,0,0,4.5-1.91l.16,0,0,.12c-2.11,2.05-3.34,4.72-5.8,6.46-3.41,2.4-8.47,2.28-12.42,1.61,1.56-.46,3.31-.59,4.92-.91.22-.06.43-.13.65-.21l-.25,0C38,13.55,36.32,13.89,34.64,14ZM62,24a8.13,8.13,0,0,0-1.23.67,10.06,10.06,0,0,1-4.06,1.45,6.28,6.28,0,0,1-.75,0,6.37,6.37,0,0,1-.76,0c-.25,0-.5,0-.75-.07s-.5-.08-.75-.14c-2.66-.56-10.36-3.5-12.47-5.09-1.8-1.36-3.16-3.25-4.91-4.71,2.26.78,3.8,2.81,5.73,4.14.56.38,2.31,1.51,3,1.39a17.58,17.58,0,0,0-1.86-1,14.86,14.86,0,0,1-3.43-3.24c2,.89,3.67,2.14,5.55,3.18A22,22,0,0,0,58.1,22.81c3.5-.43,5.66-1.71,7.45-4.77a20.3,20.3,0,0,1,1-2l.08.26C65.83,19.5,64.71,22.05,62,24Z"/></svg>